<svg xmlns:xlink="http://www.w3.org/1999/xlink" xmlns="http://www.w3.org/2000/svg" fill="none" viewBox="0 0 32 32" width="36"  height="36" ><path fill="#200E32" fill-rule="evenodd" d="M5.756 5.378h6.488c.761 0 1.378.617 1.378 1.378v19.488c0 .761-.617 1.378-1.378 1.378H5.756c-.761 0-1.378-.617-1.378-1.378v-1.896H8.04a.689.689 0 100-1.378H4.378v-3.144H8.04a.689.689 0 100-1.378H4.378v-3.143H8.04a.689.689 0 100-1.378H4.378v-3.144H8.04a.689.689 0 000-1.378H4.378v-2.65c0-.76.617-1.377 1.378-1.377zM3 6.756A2.756 2.756 0 015.756 4h6.488A2.756 2.756 0 0115 6.756v19.488A2.756 2.756 0 0112.244 29H5.756A2.756 2.756 0 013 26.244V6.756zM24.082 5.4h-2.949A2.733 2.733 0 0018.4 8.133v2.38h8.415v-2.38A2.733 2.733 0 0024.082 5.4zM18.4 23.099V11.913h8.415V23.1c0 .318-.112.626-.316.87l-3.891 4.65-3.892-4.65a1.355 1.355 0 01-.316-.87zM21.133 4A4.133 4.133 0 0017 8.133V23.1c0 .647.227 1.273.642 1.769l3.91 4.67c.55.658 1.561.658 2.112 0l3.909-4.67a2.755 2.755 0 00.642-1.769V8.133A4.133 4.133 0 0024.082 4h-2.949z" clip-rule="evenodd"></path><defs><linearGradient id="paint0_linear_487_140460.128108486150188" x1="3" x2="28.215" y1="17.016" y2="17.016" gradientUnits="userSpaceOnUse"><stop stop-color="#EC008C"></stop><stop offset="1" stop-color="#FC6767"></stop></linearGradient></defs></svg>